<?xml version="1.0" encoding="UTF-8"?>
<svg id="Layer_2" data-name="Layer 2" xmlns="http://www.w3.org/2000/svg" viewBox="0 0 491.95 316.36">
  <defs>
    <style>
      .cls-1, .cls-2 {
        fill: #ff4d00;
      }

      .cls-2 {
        stroke: #fff;
        stroke-miterlimit: 10;
      }

      .cls-3 {
        fill: #fff;
      }
    </style>
  </defs>
  <g id="Layer_1-2" data-name="Layer 1">
    <g>
      <g>
        <path class="cls-3" d="m318.11,108.55c3.62-15.5,10.78-35.5,3.02-50.84-1.98-4.5-5.31-6.72-9.99-8-.12-.02-.24-.04-.36-.05-5.12-.72-8.6,6.19-9.23,10.1-.98,6,.34,12.19.37,18.21.06,11.57-1.36,23.14-4.05,34.39-2.06,8.6-4.73,16.26-9.23,23.86-1.02,1.72-2.57,3.37-4.56,3.54-1.31.11-2.58-.44-3.83-.84-19.11-6.21-34.44,16.72-41.45,31.01-.72,1.46-1.38,3.36-2.62,4.06-3.16,1.79-6.64,3.02-9.61,4.32-.33-4.71-.24-9.56-1.08-14.23-1.93-10.67-10.77-18.14-22.23-16.13-6.18,1.09-11.55,3.75-16.43,7.47-8.96,6.85-14.95,15.96-19.61,26.08-.42.92-1.12,1.94-1.96,2.4-2.1,1.13-4.36,1.96-6.1,2.71-.46-4.87-.56-9.87-1.46-14.72-1.98-10.52-9.77-16.78-19.67-15.98-5.73.45-10.86,2.8-15.5,6.12-12.25,8.78-20.3,20.74-25.83,34.54-4.1,10.23-6.61,20.74-4.95,31.87,1.84,12.33,12.17,19.86,24.5,18.1,7.55-1.07,13.73-4.68,19.2-9.68,10.79-9.83,16.9-22.38,20.74-36.22.25-.87.82-1.88,1.54-2.34,1.7-1.06,3.58-1.83,4.81-2.43-.44,6.42-1.38,13.09-1.25,19.75.27,13.47,10.55,22.23,23.84,20.81,10.4-1.12,18.11-6.94,24.52-14.67,6.84-8.24,10.81-17.93,13.66-28.14.19-.67.44-1.63.93-1.84,2.72-1.16,5.51-2.11,8.44-3.2-.31,1.18-.57,2.05-.77,2.94-1.78,7.7-3.11,15.43-.2,23.15,1.98,5.22,5.24,9.37,10.83,11.02,6.63,1.96,12.88.74,18.37-3.3,7.94-5.86,13.64-13.73,18.47-22.21,2.21-3.88,4.03-7.98,6.19-12.32-.04.79,0,1.25-.1,1.67-1,4.68-2.34,9.31-2.96,14.04-1.46,11.19,4.29,18.67,14.98,17.77,5.11-.44,9.64-2.36,13.09-6.34,1.96-2.25,1.55-3.52-1.28-4.23-.45-.11-.87-.29-1.33-.4-1.77-.44-3.43-.73-4.47-2.4-1.15-1.83-1.67-4.48-1.93-6.6-.17-1.34-.26-2.68-.28-4.01-.01-1.34.03-2.67.14-4,2.66-28.43,10.22-57.01,16.69-84.79Zm-191.15,115.71c-.95,1.52-2.43,2.81-3.89,3.89-2.37,1.73-5.03,2.92-7.98,1.39-2.75-1.42-3.19-4.14-3.34-6.86-.5-9.33,2.51-17.9,6.04-27.06,3.34,8.71,10.01,11.37,18.19,11.57.22.27.45.54.67.81-3.22,5.43-6.34,10.92-9.69,16.27Zm16.91-50.51c-.91,6.83-2.04,13.62-3.23,20.41-.52,2.93-3.06,1.04-4.23,1.58-7.64,1.29-12.77-6.38-9.64-13.47,2.09-4.73,4.97-8.84,8.84-12.22,1.61-1.41,3.46-2.74,5.76-1.71,2.29,1.02,2.79,3.3,2.5,5.41Zm50.97,42.04c-1.93,2.19-4.21,3.83-7.31,3.91-3.28.09-5.26-.82-5.64-4.01-.53-4.51-.75-9.21-.04-13.65.96-5.99,2.94-11.82,4.78-17.64,4.03,7.53,10.01,11.15,18.5,10.99-2.68,7.33-5.12,14.54-10.29,20.4Zm14.37-38.48c-.15,2.54-.83,5.06-1.3,7.76-8.97-.79-13.37-7.46-10.27-15.55,1.09-2.85,2.89-5.52,4.81-7.92.85-1.06,3.2-2.02,4.21-1.57,1.29.57,2.59,2.59,2.69,4.06.29,4.39.13,8.81-.14,13.22Zm75.29-17.79c-.03.32-.07.64-.11.95-.79,5.48-1.9,11.04-4.44,16.29-.54,1.3-1.12,2.58-1.74,3.85-.62,1.27-1.27,2.52-1.97,3.75-3.25,5.77-7.09,11.23-10.88,16.67-1.24,1.78-3,3.31-4.81,4.56-3.66,2.55-7.13,1.08-8.08-3.26-.25-1.16-.22-2.38-.29-3.36.54-11.19,4.18-21.14,9.8-30.42,3.06-5.05,6.21-10.09,11.26-13.49.31-.2.59-.44.91-.63,1.28-.73,2.62-1.38,3.96-1.63,1.36-.26,2.74-.14,4.13.67,1.92,1.92,2.47,3.58,2.26,6.04Z"/>
        <path class="cls-3" d="m14.26,185.42c-7.26-1.81-13.63-10.04-14.19-18.21-.7-10.21,4.33-17.69,11.25-24.23,10.85-10.25,24.33-15.42,38.38-19.36,16.39-4.6,33.18-6.83,50.09-8.45,15.8-1.51,31.61-3.05,47.37-5.01,12.33-1.54,24.11-5.19,35-11.37.79-.45,1.63-.82,2.5-1.26,2.06,2.5,1.32,5.17.58,7.69-2.06,7.05-7.06,11.73-12.98,15.61-9.14,6-19.39,9.06-30.05,10.46-17.66,2.32-35.39,4.17-53.1,6.12-1.54.17-1.97.66-2.55,2.1-3.2,7.95-6.7,15.77-10.04,23.66-2.03,4.8-3.96,9.65-6.02,14.67,7.65-2.06,14.97-4.09,22.32-5.96,2.2-.56,5.07-2.5,6.58-.02.89,1.47.03,4.41-.74,6.41-4.49,11.65-5.27,11.99-17.93,14.82-5.35,1.19-10.52,3.26-15.74,5.02-1.83.62-2.81,2-3.47,3.92-7.48,21.62-14.1,43.47-18.27,65.99-1.02,5.52-1.86,11.09-2.57,16.67-.62,4.9-2.55,6.49-7.4,5.61-8.49-1.54-17.06-10.31-16.76-18.11.19-4.99,1.33-10.06,2.81-14.86,5.3-17.21,10.94-34.33,16.31-51.08-1.75.78-4.24,1.99-6.82,3-1.79.7-3.69,1.13-5.53,1.7-2.56.8-4.78.51-6.21-2.05-1.52-2.72-1.37-6.44.7-8.22,2.08-1.79,4.39-3.41,6.83-4.63,5.76-2.88,11.64-5.56,17.54-8.15,1.67-.73,2.53-1.73,3.24-3.39,5.87-13.81,11.87-27.56,17.83-41.33.29-.66.54-1.34,1.09-2.68-3.05.74-5.61,1.29-8.13,1.99-11.32,3.11-21.98,7.6-30.88,15.48-5.4,4.78-9.95,10.29-10.96,17.76-.42,3.14-.07,6.38-.07,9.7Z"/>
        <path class="cls-3" d="m450.95,238.68c-17.19-1.46-33.9-.21-50.56,1.17-16.37,1.36-32.75,3.03-49.01,5.34-23.75,3.38-47.43,7.28-71.07,11.31-10.53,1.79-20.95,4.26-31.34,6.75-17.75,4.26-35.54,8.37-53.11,13.3-16.93,4.76-33.7,10.15-50.32,15.9-13.31,4.6-26.34,10.03-39.39,15.34-4.85,1.98-9.49,4.54-14.07,7.11-3.52,1.98-6.71,2.12-9.59-.79-4.79-4.85-9.71-9.62-14.05-14.85-3.26-3.93-2.54-6.53,2.19-8.34,14.19-5.4,28.35-10.95,42.81-15.56,27.39-8.73,55.32-15.51,83.4-21.6,19.89-4.32,39.88-8.19,59.94-11.64,18.18-3.12,36.47-5.61,54.77-7.98,14.92-1.93,29.88-3.58,44.87-4.81,23.31-1.92,46.67-3.4,70.08-2.34,8.48.38,16.94,1.36,24.86,4.85.25.11.55.15.77.3,1.54,1.09,4.13,1.34,3.55,4.19-.4,1.97-1.47,2.42-4.73,2.34Z"/>
        <path class="cls-3" d="m465.57,135.69c-8.87.69-17.17,1.58-24.83,5.56-4.03,2.1-6.45.89-6.76-3.65-.23-3.4.21-6.93.9-10.29,1.09-5.3,5.89-5.31,9.85-5.84,10.78-1.46,21.61-2.6,32.42-3.82,1.74-.2,3.51-.12,5.27-.18,7.27-.26,11.52,5.5,8.6,12.24-1.43,3.31-3.67,6.38-5.98,9.2-11.68,14.2-23.5,28.29-35.27,42.42-.09.1-.06.3-.11.63,7.89-2.6,15.88-4.35,24.13-4.43,7.03-.07,11.33,2.35,12.77,7.91.87,3.34.59,7.06.36,10.58-.13,1.93-1.64,2.94-3.87,2.37-8.67-2.24-17.51-1.75-26.18-.59-10.2,1.36-20.28,3.63-30.4,5.62-4.18.82-5.74-.47-5.21-4.79,1.02-8.29,5.27-15.12,10.33-21.39,10.96-13.59,22.17-26.99,33.27-40.47.16-.19.28-.42.7-1.07Z"/>
        <path class="cls-3" d="m358.87,188.6c-.29.18-.48.5-.76.69-4.75,3.21-9.32,6.75-14.33,9.48-3.69,2.02-7.25.34-9.01-3.37-1.83-3.85-1.98-7.91-1.24-12,2.81,0,5.48.31,8.06-.07,5.29-.78,9.49-3.98,13.55-7.12,9.05-7.02,14.38-16.14,14.11-27.88-.23-10.27-6.87-15.79-16.92-14.62-6.25.72-11.75,3.1-16.68,6.91-8.6,6.62-13.99,15.52-17.8,25.45-4.11,10.69-6.05,21.7-3.82,33.12,1.67,8.55,8.27,14.24,15.94,14.2,8.61-.06,16.13-3.03,22.77-8.37,4.61-3.71,7.81-8.47,9.65-14.05.43-1.3-.07-2.91-.14-4.37-1.12.66-2.25,1.31-3.37,2Zm-22.85-21.02c2.25-6.67,4.78-13.24,9.36-18.73,1.34-1.61,3.03-3.07,4.84-4.13,3.2-1.88,5.62-.44,5.66,3.29.06,5.55-2.16,10.34-5.37,14.69-4.01,5.43-9.34,9.16-16.19,12.05.64-2.77.98-5.03,1.7-7.17Z"/>
        <path class="cls-3" d="m418.44,179.02c-.32-.23-1.25.11-1.75.44-.92.62-1.68,1.49-2.58,2.13-4.37,3.15-8.57,6.63-13.24,9.26-3.97,2.24-7.82,1.08-10.13-2.11-2.6-3.58-3.24-7.63-2.62-11.87.31-.15.46-.27.61-.28.34-.03.68-.03,1.02-.03,10.34.17,18.7-4.11,25.23-11.84,6.06-7.17,8.58-15.76,8.63-25.05.04-5.46-4.76-11.08-10.12-12.23-3.71-.8-7.34-.52-10.91.74-8.94,3.15-15.59,9.22-21.18,16.64-7.32,9.69-10.26,21.01-12.08,32.72-1.04,6.73-.86,13.35,2.04,19.7,3.2,7.01,9.71,11.17,16.64,10.1,13.71-2.11,23.58-9.75,30.15-21.78.76-1.38,1.02-3.08,1.25-4.67.08-.59-.44-1.49-.96-1.87Zm-29.34-12.73c2.21-7.59,4.81-15.06,9.5-21.5,1.72-2.36,4.13-4.37,6.6-5.95,2.57-1.66,5.27.19,4.72,3.24-1.89,10.56-6.3,19.52-16.58,24.48-1.48.72-2.79,1.78-4.53,2.93.11-1.37.03-2.33.29-3.19Z"/>
      </g>
      <path class="cls-3" d="m420.04,61.55c-5.18,10.67-11.89,20.35-18.97,29.81-8.68,11.6-17.97,22.7-27.73,33.41-.38.42-.77.84-1.16,1.26l-.98-.11c-11.14-19.43-21.51-39.23-29.03-60.39-1.89-5.32-3.33-10.84-4.55-16.36-2.09-9.49-.05-18.45,4.73-26.71,7.99-13.78,20.12-21.39,36.02-22.38,23.87-1.47,44.68,17.34,46.05,41.1.42,7.25-1.25,13.92-4.38,20.36Z"/>
      <path class="cls-1" d="m378.54,22.68c.44-1.95.87-3.9,1.35-5.84.19-.78.38-1.86,1.09-2.4.78-.59,1.24.45,1.3,1.12.12,1.28-.18,2.71-.38,3.97-.68,4.46-1.37,8.92-2.13,13.36-.55,3.2-2.09,5.68-5.2,7.1-2.67,1.21-4.25,3.45-4.8,6.29-1.16,6.02-2.31,12.06-3.27,18.11-.8,5-1.29,10.05-2,15.06-.32,2.29-1.07,4.46-2.52,6.32-.96,1.24-2.18,2.01-3.84,1.63-1.67-.38-2.43-1.6-2.75-3.14-.57-2.74.07-5.37.92-7.95,3.05-9.27,6.13-18.53,9.16-27.8.4-1.22.59-2.52.86-3.78.53-2.51,0-4.84-1.57-6.8-2.18-2.72-2.57-5.71-1.57-8.88.91-2.9,1.86-5.78,2.82-8.67.59-1.76,1.1-3.53,1.7-5.29.23-.68,1.11-4.34,2.32-3.69.91.49.59,1.91.4,2.71-.8,3.4-1.67,6.78-2.49,10.17-.23.93-.5,1.86-.67,2.8-.09.49-.08,1.04.06,1.52.37,1.26,1.67,1.58,2.45.53.53-.72.87-1.62,1.11-2.5,1.05-3.82,2.01-7.65,3.05-11.47.19-.69.74-2.41,1.61-2.51.36-.04.73.18.87.51.45,1.09-.01,2.79-.23,3.91-.7,3.52-1.52,7.01-2.25,10.53-.16.75-.27,1.56-.14,2.29.09.49.57,1.15,1.01,1.27.44.12,1.14-.2,1.54-.54.35-.3.53-.87.66-1.36.55-2.19,1.04-4.39,1.54-6.59Z"/>
      <path class="cls-2" d="m390.96,42.22c1.01,10.47,2.83,20.83,4.77,31.17.62,3.28,1.48,6.52,1.76,9.85.22,2.67.55,7.06-2.55,8.19-1.6.58-3.25-.12-4.27-1.83-1.54-2.58-1.8-5.45-1.86-8.38-.13-6.48-.29-12.97-.43-19.45-.04-1.54-.47-3.01-1.72-3.9-3.87-2.73-5.38-6.62-6.08-11.11-1.21-7.78-1.66-15.52.19-23.25.64-2.68,1.49-5.32,3.09-7.59.52-.74,1.45-1.29,2.31-1.66.84-.36,1.59.14,1.95.98.23.53.37,1.12.42,1.69.82,8.43,1.62,16.86,2.42,25.29Z"/>
    </g>
  </g>
</svg>